<svg width="122" height="93" viewBox="0 0 122 93" fill="none" xmlns="http://www.w3.org/2000/svg">
<path d="M7.62513 31.9999C7.62494 31.666 7.69055 31.3354 7.81822 31.027C7.94588 30.7185 8.13309 30.4383 8.36914 30.2022C8.6052 29.9662 8.88546 29.7789 9.19392 29.6513C9.50237 29.5236 9.83297 29.458 10.1668 29.4582L105.698 29.4582L89.7032 13.4636C89.4605 13.2291 89.2668 12.9487 89.1336 12.6386C89.0004 12.3285 88.9303 11.995 88.9274 11.6575C88.9244 11.32 88.9888 10.9853 89.1166 10.673C89.2444 10.3606 89.4331 10.0768 89.6717 9.83818C89.9104 9.59954 90.1942 9.41081 90.5065 9.28302C90.8189 9.15522 91.1536 9.09091 91.491 9.09384C91.8285 9.09678 92.162 9.16689 92.4721 9.3001C92.7822 9.43331 93.0627 9.62694 93.2971 9.86969L113.63 30.203C113.867 30.439 114.054 30.7191 114.182 31.0274C114.309 31.3358 114.375 31.6662 114.375 32C114.375 32.3337 114.309 32.6642 114.182 32.9725C114.054 33.2809 113.867 33.561 113.63 33.7969L93.2971 54.1303C92.8178 54.5933 92.1757 54.8494 91.5093 54.8437C90.8429 54.8379 90.2054 54.5706 89.7342 54.0993C89.2629 53.6281 88.9956 52.9906 88.9898 52.3242C88.9841 51.6577 89.2402 51.0157 89.7032 50.5364L105.698 34.5415L10.1668 34.5415C9.83297 34.5417 9.50237 34.4761 9.19392 34.3485C8.88546 34.2208 8.6052 34.0336 8.36914 33.7975C8.13309 33.5615 7.94588 33.2812 7.81822 32.9728C7.69055 32.6643 7.62494 32.3337 7.62513 31.9999Z" fill="white"/>
</svg>
