<svg width="56" height="56" viewBox="0 0 56 56" fill="none" xmlns="http://www.w3.org/2000/svg">
<g clip-path="url(#clip0_73_3355)">
<path d="M56 28C56 35.4261 53.05 42.548 47.799 47.799C42.548 53.05 35.4261 56 28 56C20.5739 56 13.452 53.05 8.20101 47.799C2.94999 42.548 0 35.4261 0 28C0 20.5739 2.94999 13.452 8.20101 8.20101C13.452 2.94999 20.5739 0 28 0C35.4261 0 42.548 2.94999 47.799 8.20101C53.05 13.452 56 20.5739 56 28ZM23.765 17.8255C23.5033 17.6392 23.1954 17.5285 22.875 17.5056C22.5546 17.4826 22.2341 17.5483 21.9485 17.6954C21.663 17.8425 21.4234 18.0654 21.2561 18.3396C21.0888 18.6138 21.0002 18.9288 21 19.25V36.75C21.0002 37.0712 21.0888 37.3862 21.2561 37.6604C21.4234 37.9346 21.663 38.1575 21.9485 38.3046C22.2341 38.4517 22.5546 38.5174 22.875 38.4944C23.1954 38.4715 23.5033 38.3608 23.765 38.1745L36.015 29.4245C36.2419 29.2626 36.4268 29.0489 36.5543 28.8011C36.6819 28.5534 36.7485 28.2787 36.7485 28C36.7485 27.7213 36.6819 27.4466 36.5543 27.1989C36.4268 26.9511 36.2419 26.7374 36.015 26.5755L23.765 17.8255Z" fill="#F31D1D"/>
</g>
<defs>
<clipPath id="clip0_73_3355">
<rect width="56" height="56" fill="white"/>
</clipPath>
</defs>
</svg>
