<svg width="28" height="28" viewBox="0 0 28 28" fill="none" xmlns="http://www.w3.org/2000/svg">
<path d="M14.0013 0.666626C6.65463 0.666626 0.667969 6.65329 0.667969 14C0.667969 21.3466 6.65463 27.3333 14.0013 27.3333C21.348 27.3333 27.3346 21.3466 27.3346 14C27.3346 6.65329 21.348 0.666626 14.0013 0.666626ZM20.3746 10.9333L12.8146 18.4933C12.628 18.68 12.3746 18.7866 12.108 18.7866C11.8413 18.7866 11.588 18.68 11.4013 18.4933L7.62797 14.72C7.2413 14.3333 7.2413 13.6933 7.62797 13.3066C8.01463 12.92 8.65463 12.92 9.0413 13.3066L12.108 16.3733L18.9613 9.51996C19.348 9.13329 19.988 9.13329 20.3746 9.51996C20.7613 9.90663 20.7613 10.5333 20.3746 10.9333Z" fill="#F31D1D"/>
</svg>
